<?xml version="1.0" standalone="no"?><!DOCTYPE svg PUBLIC "-//W3C//DTD SVG 1.1//EN" "http://www.w3.org/Graphics/SVG/1.1/DTD/svg11.dtd"><svg t="1715701211103" class="icon" viewBox="0 0 1024 1024" version="1.1" xmlns="http://www.w3.org/2000/svg" p-id="7505" xmlns:xlink="http://www.w3.org/1999/xlink" width="32" height="32"><path d="M304.761905 804.571429a60.952381 60.952381 0 1 1 0 121.904761 60.952381 60.952381 0 0 1 0-121.904761z m438.857143 0a60.952381 60.952381 0 1 1 0 121.904761 60.952381 60.952381 0 0 1 0-121.904761zM97.718857 109.714286a109.714286 109.714286 0 0 1 107.349333 87.064381L220.16 268.190476 836.681143 268.190476a73.142857 73.142857 0 0 1 71.631238 87.942095l-70.460952 341.333334A73.142857 73.142857 0 0 1 766.22019 755.809524H306.541714a73.142857 73.142857 0 0 1-71.631238-58.343619l-69.241905-335.335619-0.463238 0.097524-31.695238-150.357334A36.571429 36.571429 0 0 0 97.718857 182.857143H35.157333v-73.142857h62.561524zM707.047619 463.238095H365.714286v73.142857h341.333333v-73.142857z" p-id="7506"></path></svg>