<?xml version="1.0" standalone="no"?><!DOCTYPE svg PUBLIC "-//W3C//DTD SVG 1.1//EN" "http://www.w3.org/Graphics/SVG/1.1/DTD/svg11.dtd"><svg t="1722230440594" class="icon" viewBox="0 0 1174 1024" version="1.1" xmlns="http://www.w3.org/2000/svg" p-id="1157" xmlns:xlink="http://www.w3.org/1999/xlink" width="27.515625" height="24"><path d="M1042.50957031 957.34882813H119.11484375a38.475 38.475 0 0 1 0-76.9491211h12.825V136.55410156a51.3 51.3 0 0 1 51.3-51.3H567.98632813a51.3 51.3 0 0 1 51.3 51.3v106.60078125c56.66044922 9.64423828 207.50712891 35.73017578 300.46201171 55.22431641 63.58623047 13.33740234 58.81464844 47.27285156 58.81464844 118.16894531v463.8515625h63.94570313a38.475 38.475 0 0 1 0 76.9491211zM516.68720703 323.31025391a32.85703125 32.85703125 0 0 0-32.85703125-32.85703125h-190.78417969a32.85703125 32.85703125 0 0 0-32.85703125 32.85703125v11.23505859a32.85703125 32.85703125 0 0 0 32.85791016 32.85703125h190.78330078a32.85703125 32.85703125 0 0 0 32.85703125-32.85703125v-11.23505859z m0 179.54912109a32.85703125 32.85703125 0 0 0-32.85703125-32.85703125h-190.78417969a32.85703125 32.85703125 0 0 0-32.85703125 32.85703125v11.23505859a32.85703125 32.85703125 0 0 0 32.85791016 32.85703125h190.78330078a32.85703125 32.85703125 0 0 0 32.85703125-32.85703125V502.859375z m0 179.54912109a32.85703125 32.85703125 0 0 0-32.85703125-32.85791015h-190.78417969a32.85703125 32.85703125 0 0 0-32.85703125 32.85791015v11.23417969a32.85703125 32.85703125 0 0 0 32.85791016 32.85791016h190.78330078a32.85703125 32.85703125 0 0 0 32.85703125-32.85791016v-11.23417969zM875.78544922 502.859375a32.85703125 32.85703125 0 0 0-32.85791016-32.85703125H729.09423828A32.85703125 32.85703125 0 0 0 696.23632813 502.859375v11.23505859a32.85703125 32.85703125 0 0 0 32.85791015 32.85703125h113.83330078a32.85703125 32.85703125 0 0 0 32.85791016-32.85703125V502.859375z m0 179.54912109a32.85703125 32.85703125 0 0 0-32.85791016-32.85791015H729.09423828a32.85703125 32.85703125 0 0 0-32.85791016 32.85791015v11.23417969a32.85703125 32.85703125 0 0 0 32.85791016 32.85791016h113.83330078a32.85703125 32.85703125 0 0 0 32.85791016-32.85791016v-11.23417969z" fill="#707070" p-id="1158"></path></svg>