<?xml version="1.0" standalone="no"?><!DOCTYPE svg PUBLIC "-//W3C//DTD SVG 1.1//EN" "http://www.w3.org/Graphics/SVG/1.1/DTD/svg11.dtd"><svg t="1722230488631" class="icon" viewBox="0 0 1067 1024" version="1.1" xmlns="http://www.w3.org/2000/svg" p-id="1463" xmlns:xlink="http://www.w3.org/1999/xlink" width="25.0078125" height="24"><path d="M1027.562 86.18c0-47.03-38.175-85.165-85.275-85.165l-817.91 0C77.285 1.015 39.1 39.15 39.1 86.18L0.36 937.818c0 47.03 38.182 85.165 85.275 85.165l895.393 0c47.1 0 85.275-38.135 85.275-85.165L1027.562 86.18 1027.562 86.18zM533.161 596.908c-177.255 0-320.944-143.505-320.944-320.527 0-7.61 0.62-15.052 1.125-22.537l0.082 0c1.072-22.79 19.89-40.96 42.977-40.96 23.075 0 41.942 18.172 43.022 40.96l0.773 0c-0.747 7.902-2.372 15.592-2.372 23.705 0 129.322 104.967 234.194 234.509 234.194 129.535 0 234.504-104.872 234.504-234.194 0-4.88-0.575-9.61-1.205-14.315-0.325-1.693-0.545-3.413-0.675-5.165-0.18-1.403-0.35-2.813-0.49-4.225l0.38 0c0.52-23.895 20.05-43.14 44.095-43.14 24.38 0 44.175 19.767 44.175 44.11l-0.01 0c0 0.205-0.01 0.41-0.01 0.615 0.48 6.95 1.01 13.885 1.01 20.952C854.113 453.404 710.423 596.908 533.161 596.908L533.161 596.908z" fill="#707070" p-id="1464"></path></svg>