<?xml version="1.0" standalone="no"?><!DOCTYPE svg PUBLIC "-//W3C//DTD SVG 1.1//EN" "http://www.w3.org/Graphics/SVG/1.1/DTD/svg11.dtd"><svg t="1716130811715" class="icon" viewBox="0 0 1024 1024" version="1.1" xmlns="http://www.w3.org/2000/svg" p-id="2609" xmlns:xlink="http://www.w3.org/1999/xlink" width="32" height="32"><path d="M512.024381 0C229.205333 0 0 229.205333 0 512.024381 0 794.770286 229.205333 1024 512.024381 1024 794.770286 1024 1024 794.770286 1024 512.024381 1024 229.205333 794.770286 0 512.024381 0M849.603048 353.328762l-385.462857 385.462857c-9.411048 9.411048-21.723429 14.09219-34.06019 14.09219s-24.697905-4.681143-34.084571-14.09219l-221.622857-221.647238c-18.822095-18.822095-18.822095-49.322667 0-68.120381 18.822095-18.846476 49.322667-18.846476 68.144762 0l187.562667 187.562667 351.378286-351.402667c18.822095-18.822095 49.322667-18.822095 68.144762 0C868.425143 304.006095 868.425143 334.506667 849.603048 353.328762" fill="#0ca3f3" p-id="2610"></path></svg>