<?xml version="1.0" standalone="no"?><!DOCTYPE svg PUBLIC "-//W3C//DTD SVG 1.1//EN" "http://www.w3.org/Graphics/SVG/1.1/DTD/svg11.dtd"><svg t="1722957673342" class="icon" viewBox="0 0 1024 1024" version="1.1" xmlns="http://www.w3.org/2000/svg" p-id="9356" xmlns:xlink="http://www.w3.org/1999/xlink" width="24" height="24"><path d="M512 263.069808a125.292712 125.292712 0 1 1 0 250.585425 125.292712 125.292712 0 0 1 0-250.585425z m0 81.358904a43.933808 43.933808 0 1 0 0 87.867617 43.933808 43.933808 0 0 0 0-87.867617z" fill="#ffffff" p-id="9357"></path><path d="M512 122.024329c148.956932 0 269.704767 120.747836 269.704767 269.704767 0 64.021041-37.368986 140.736877-112.120986 230.161534l-9.328219 11.025534a1141.030575 1141.030575 0 0 1-19.806685 22.401754l-10.450411 11.390246-10.843178 11.530521-5.55485 5.807342-11.390246 11.712877c-3.857534 3.927671-7.785205 7.855342-11.768987 11.839123l-12.133698 11.96537-6.214137 6.031781-12.694795 12.147726-13.073534 12.288-13.466301 12.400219c-6.803288 6.242192-13.760877 12.526466-20.85874 18.86685l-14.01337-12.610631-13.63463-12.470356-6.677041-6.186082-13.073534-12.288-12.694795-12.147726-12.330082-12.035507c-6.073863-5.989699-11.993425-11.923288-17.78674-17.814794l-11.390246-11.69885-5.55485-5.807342-10.843178-11.530521-10.450411-11.390246a1141.030575 1141.030575 0 0 1-19.806685-22.401754l-9.328219-11.025534c-74.752-89.424658-112.120986-166.140493-112.120986-230.161534 0-148.970959 120.747836-269.704767 269.704767-269.704767z m0 81.358904c-104.013151 0-188.345863 84.318685-188.345863 188.345863 0 32.248986 17.225644 74.303123 52.294137 124.857863l6.578849 9.286137c7.897425 10.94137 16.608438 22.275507 26.119014 33.960329l8.346301 10.099726 4.334466 5.134027 8.94948 10.380274c1.528986 1.739397 3.057973 3.492822 4.629041 5.246247l9.53863 10.646794c3.254356 3.576986 6.578849 7.182027 9.959452 10.801096l10.352219 10.997479c7.027726 7.378411 14.336 14.869041 21.910795 22.471891l11.558575 11.488438 13.774904 13.382137 7.855342-7.574794 11.768987-11.58663c3.857534-3.829479 7.644932-7.644932 11.362192-11.418302l10.969424-11.235945c3.576986-3.731288 7.097863-7.420493 10.548603-11.081644l10.155836-10.913315c6.648986-7.210082 13.017425-14.307945 19.119342-21.279562l8.949479-10.380274 8.556713-10.211945c1.40274-1.683288 2.777425-3.366575 4.138082-5.049863l7.953534-9.931397c50.442521-63.992986 75.747945-116.455452 76.926247-155.283288l0.042082-2.805479c0-104.027178-84.332712-188.345863-188.345863-188.345863z" fill="#ffffff" p-id="9358"></path><path d="M698.101479 676.48526l123.090411 160.010521c20.10126 26.133041 2.384658 63.684384-29.906411 65.423781l-2.328547 0.056109H235.043068c-32.964384 0-51.929425-36.948164-33.609643-63.600219l1.374685-1.879671 123.090411-160.010521 64.483945 49.600877-72.718028 94.544658h388.685151l-72.732055-94.544658 64.483945-49.600877z" fill="#ffffff" p-id="9359"></path></svg>