<?xml version="1.0" standalone="no"?><!DOCTYPE svg PUBLIC "-//W3C//DTD SVG 1.1//EN" "http://www.w3.org/Graphics/SVG/1.1/DTD/svg11.dtd"><svg t="1722955845586" class="icon" viewBox="0 0 1024 1024" version="1.1" xmlns="http://www.w3.org/2000/svg" p-id="12471" xmlns:xlink="http://www.w3.org/1999/xlink" width="24" height="24"><path d="M833 854.8c-18.6 0-37-6.6-52.2-19.4l-73.2-61.8c-5-4.2-11-6.6-17.4-6.6H250c-77.4 0-140.4-67.2-140.4-150V324.2c0-82.8 63-150 140.4-150h526.4c77.4 0 140.4 67.2 140.4 150v442c0 35.6-19.2 66.6-50 81-11 5-22.4 7.6-33.8 7.6z m-17.4-60.8c11.4 9.6 22.6 6.8 28.2 4.2 9-4.2 18.8-14.8 18.8-32v-442c0-52.8-38.8-95.8-86.4-95.8H250c-47.6 0-86.4 43-86.4 95.8v293c0 52.8 38.8 95.8 86.4 95.8h440.2c19 0 37.4 6.8 52.2 19.4l73.2 61.6z" p-id="12472" fill="#ffffff"></path><path d="M350 466m-53.4 0a53.4 53.4 0 1 0 106.8 0 53.4 53.4 0 1 0-106.8 0Z" fill="#ffffff" p-id="12473"></path><path d="M506 466m-53.4 0a53.4 53.4 0 1 0 106.8 0 53.4 53.4 0 1 0-106.8 0Z" fill="#ffffff" p-id="12474"></path><path d="M666.4 466m-53.4 0a53.4 53.4 0 1 0 106.8 0 53.4 53.4 0 1 0-106.8 0Z" fill="#ffffff" p-id="12475"></path></svg>